PathFileType	4	(X/Y/Z)	D:\TRACE\spotREDO_2-26-24\spot_baseline_2-v60.trc
DataRate	CameraRate	NumFrames	NumMarkers	Units	OrigDataRate	OrigDataStartFrame	OrigNumFrames
100.00	100.00	      39	9	mm	100.00	876	      7000
Frame#	Time	front left toe			Front right toe			aft left toe			aft right toe			Arm			FL body			FR body			AL Body			AR Body			
		X1	Y1	Z1	X2	Y2	Z2	X3	Y3	Z3	X4	Y4	Z4	X5	Y5	Z5	X6	Y6	Z6	X7	Y7	Z7	X8	Y8	Z8	X9	Y9	Z9	

876	8.750	-242.34503	20.23672	-110.80730	333.81491	29.47558	-148.41299	-161.72200	20.12928	376.50949	368.16010	32.30420	390.18515	1.51929	808.12921	-269.22876	-80.07124	549.15216	-237.58916	75.41744	553.45630	-251.07095	-13.62769	564.16327	643.83850	133.96094	563.89655	633.33667	
877	8.760	-242.17554	20.23132	-110.80952	333.77200	29.29472	-148.42587	-161.73080	20.18256	376.49011	366.72040	31.83477	390.12247	2.04548	808.04163	-269.31537	-79.39276	548.98145	-237.73997	76.07676	553.32593	-251.28113	-13.60273	564.28491	643.76178	134.26643	563.96887	633.11694	
878	8.770	-242.16966	20.31179	-110.91788	333.94559	29.27571	-148.39539	-161.75668	20.20110	376.48544	366.80051	31.84625	390.11093	3.04799	807.91455	-269.54071	-78.86668	548.90381	-238.10699	76.78608	553.28815	-251.48303	-13.24379	564.42920	643.55786	135.15372	563.94702	633.41437	
879	8.780	-242.12730	20.32230	-110.92638	334.05362	29.11378	-148.30968	-161.69208	20.16648	376.42862	366.82718	31.74800	390.05075	3.82707	807.82025	-270.03632	-78.09493	548.73187	-238.44073	77.72391	553.25592	-251.71118	-12.63503	564.50232	643.23492	135.49417	564.25641	632.86072	
880	8.790	-242.06699	20.39350	-110.92261	334.03934	29.15026	-148.26344	-161.62250	20.16054	376.47064	366.89627	31.73162	390.06418	4.39093	807.75635	-270.30768	-77.48094	548.66071	-238.67659	78.48383	553.15149	-251.88600	-12.22087	564.60046	642.90356	135.76550	564.60474	632.62531	
881	8.800	-241.97426	20.43679	-111.01821	334.16095	29.09163	-148.16541	-161.63498	20.17624	376.46863	366.96072	31.70902	390.05975	5.29487	807.60559	-270.74075	-76.53168	548.60846	-239.15652	79.33170	553.06403	-252.06361	-11.80571	564.91272	642.61218	136.11440	564.79865	632.40326	
882	8.810	-241.90320	20.54003	-111.07473	334.11185	28.98239	-148.17163	-161.60234	20.15333	376.45709	367.07742	31.71146	390.10010	5.86716	807.41510	-271.32520	-75.72845	548.57556	-239.54227	80.04725	552.95593	-252.38055	-11.73103	565.03601	642.25366	136.35210	564.92261	631.89874	
883	8.820	-241.79189	20.62473	-111.16158	334.41156	29.01543	-148.02859	-161.58928	20.10518	376.45975	367.18814	31.80399	390.17377	6.63101	807.25696	-271.63339	-74.67905	548.31927	-239.92050	80.95206	552.77258	-252.81010	-11.08698	565.20764	641.88879	136.77531	565.07623	631.50000	
884	8.830	-241.74782	20.59176	-111.19993	334.33435	28.91123	-148.09911	-161.59117	20.15355	376.37488	367.38098	31.81981	390.15927	7.58390	807.09863	-272.24356	-73.83690	548.08038	-240.23325	81.78017	552.47339	-253.15648	-10.49308	565.35950	641.44727	137.53766	565.20947	631.24475	
885	8.840	-241.68951	20.61447	-111.26640	334.38962	28.89684	-148.07292	-161.62311	20.33582	376.28036	367.49869	31.84704	390.15192	8.39104	807.11096	-272.79630	-72.93505	547.93323	-240.51445	82.60182	552.46710	-253.56790	-9.99618	565.45691	640.97327	137.94185	565.58240	630.91626	
886	8.850	-241.67369	20.73356	-111.34875	334.30038	28.79824	-148.16299	-161.51805	20.40462	376.20621	367.62042	31.85285	390.21042	9.08545	806.98663	-273.41055	-72.56249	547.96655	-241.53459	83.44147	552.45209	-254.12712	-9.46167	565.57629	640.49438	138.79002	565.73779	630.62433	
887	8.860	-241.51001	20.80297	-111.38318	334.34622	28.61266	-148.10931	-161.49496	20.61835	376.10654	367.64008	31.82094	390.23074	9.86597	806.92371	-274.05301	-71.72097	547.85614	-242.21207	84.35224	552.39783	-254.53864	-8.62582	565.76581	640.03333	139.57921	565.83276	629.82953	
888	8.870	-241.46390	20.87002	-111.41389	334.50754	28.49856	-148.14650	-161.37492	20.74261	376.04504	367.79956	31.75640	390.15234	10.78309	806.67963	-274.42059	-70.76024	547.54205	-242.21309	85.14547	552.21948	-255.09645	-7.95856	565.96191	639.57690	140.10933	565.99030	629.43768	
889	8.880	-241.42952	20.88583	-111.41573	334.69077	28.51632	-148.11859	-161.29095	20.86239	375.96356	367.90082	31.66548	390.15930	11.73572	806.50568	-275.21924	-69.78997	547.25098	-242.80521	85.94087	552.05927	-255.59074	-7.26057	566.06018	638.96265	141.10257	566.09027	629.42529	
890	8.890	-241.38440	20.86518	-111.43307	334.74936	28.57100	-148.12149	-161.26561	20.85015	375.94461	367.96985	31.70472	390.14285	12.28066	806.34259	-275.73026	-69.14684	547.16986	-243.24768	86.25936	551.86096	-256.18652	-6.21610	566.20392	638.48193	141.59489	566.44727	628.09167	
891	8.900	-241.33765	20.91898	-111.39751	334.84421	28.57231	-148.08188	-161.27414	20.91645	375.93234	368.11072	31.74834	390.18210	13.49166	806.18542	-276.23715	-68.15752	547.16211	-243.90700	87.44525	551.70331	-256.75009	-4.76889	566.47192	637.89587	142.87930	566.54083	627.79675	
892	8.910	-241.35248	20.97992	-111.34474	334.80328	28.43565	-148.13722	-161.26997	20.98636	375.87778	368.30930	31.70395	390.16400	13.94029	806.14838	-277.06949	-67.56581	547.08600	-244.30246	88.05398	551.55621	-257.30844	-4.36201	566.69672	637.36719	143.72946	566.68152	627.44220	
893	8.920	-241.30829	21.02965	-111.38631	334.47046	28.30231	-148.28012	-161.18860	21.00629	375.86591	368.48737	31.68347	390.15195	14.69528	806.03497	-277.54480	-66.59122	547.03015	-244.61296	88.93430	551.62598	-258.01270	-3.10432	566.77899	636.72919	144.84766	566.79932	626.93256	
894	8.930	-241.27763	21.14473	-111.49410	334.64008	28.24315	-148.28482	-161.08900	21.05606	375.85504	368.62738	31.60763	390.14493	15.71261	805.92853	-278.21942	-65.90758	546.86804	-245.37689	89.61498	551.43359	-258.52988	-2.44149	566.80774	636.13776	145.50990	566.80902	625.94427	
895	8.940	-241.26791	21.18803	-111.54987	334.71829	28.15521	-148.34192	-161.02563	21.07180	375.85873	368.63849	31.53213	390.11890	16.41068	805.76575	-278.64511	-65.02557	546.65411	-246.09970	90.57884	551.40283	-259.12170	-1.30194	567.01910	635.55890	146.65863	566.95709	625.39557	
896	8.950	-241.22229	21.27305	-111.64167	334.96420	28.20577	-148.30502	-160.88390	21.09069	375.80286	368.76978	31.47554	390.13364	17.28089	805.70715	-279.60776	-64.27381	546.66528	-246.52724	91.32927	551.37872	-259.69962	-0.66640	567.04413	634.82123	147.78769	566.98773	624.68860	
897	8.960	-241.21713	21.41469	-111.66464	335.05133	28.18665	-148.37988	-160.83675	21.15613	375.82828	368.92557	31.39683	390.20859	18.22639	805.62482	-279.97836	-63.31725	546.73413	-247.04433	92.28273	551.59814	-260.55734	0.63102	566.83136	634.06458	149.11308	567.04681	624.44751	
898	8.970	-241.17285	21.48890	-111.68404	334.96951	28.07844	-148.44281	-160.74184	21.18934	375.83542	369.00375	31.26361	390.18631	18.95057	805.83728	-280.83240	-62.15424	546.71918	-247.60077	93.27523	551.46240	-260.96576	1.08203	566.88684	633.32635	150.04060	567.00616	623.48346	
899	8.980	-241.09987	21.55982	-111.79312	334.90079	27.95424	-148.45940	-160.66455	21.27099	375.80661	369.01117	31.22065	390.20465	19.76684	805.90137	-281.50555	-61.72065	546.93713	-248.49170	94.28386	551.42316	-261.84436	2.39889	566.77020	632.48212	150.98058	567.07855	622.77924	
900	8.990	-241.01880	21.51612	-111.86116	335.03015	28.06884	-148.41071	-160.59285	21.27603	375.71298	369.06223	31.08869	390.18607	20.92638	805.81622	-281.96899	-60.46714	546.77710	-249.00157	95.23705	551.33948	-262.28827	2.80284	566.58789	631.74689	151.86102	567.14655	622.07990	
901	9.000	-240.90080	21.51078	-111.92120	334.99533	28.00014	-148.42484	-160.52286	21.39811	375.71747	369.18530	31.04649	390.15018	21.66249	805.83813	-282.69812	-60.03698	546.99213	-250.27911	96.02423	551.58264	-263.21820	3.85926	566.51660	631.09625	153.18489	566.97919	621.52222	
902	9.010	-240.91025	21.59897	-111.91718	335.11002	28.05076	-148.39668	-160.44550	21.54006	375.62143	369.22754	30.93086	390.16257	22.54861	805.89679	-283.38644	-58.54080	547.00238	-250.65208	97.01929	551.60791	-263.72034	4.63544	566.36951	630.16302	154.16714	567.00281	621.17139	
903	9.020	-240.82021	21.66431	-112.01437	335.16995	28.01752	-148.37296	-160.37993	21.59718	375.59653	369.25504	30.91199	390.17111	23.77834	806.07391	-284.07874	-57.69070	547.15668	-251.33272	98.16370	551.81348	-264.62311	5.45613	566.14557	629.48175	155.21162	566.98706	619.96436	
904	9.030	-240.76401	21.80788	-112.11259	335.04901	27.63885	-148.37527	-160.36450	21.64427	375.54828	369.37405	30.84337	390.14304	24.69419	806.20923	-284.69849	-56.42829	547.04266	-252.09085	99.21442	551.85016	-265.18591	9.42482	567.10767	630.51459	156.21960	566.95789	619.29071	
905	9.040	-240.59303	21.98391	-112.14780	335.37076	27.65631	-148.24445	-160.32643	21.69462	375.47479	369.42563	30.75756	390.17188	25.90800	806.28888	-285.46658	-55.22366	547.03778	-252.71684	100.30946	551.93695	-266.03433	10.14000	567.00140	629.65228	157.62619	566.93579	618.56189	
906	9.050	-240.49034	21.82621	-112.20256	335.69009	27.66245	-148.14731	-160.29669	21.73456	375.37338	369.53915	30.78132	390.14825	26.79089	806.37598	-286.20322	-53.91938	547.09021	-253.54593	101.65324	552.07874	-266.58258	10.97877	566.92499	628.56964	158.47658	566.94324	617.91943	
907	9.060	-240.36967	21.87112	-112.30602	335.84894	27.69093	-148.14046	-160.27686	21.79795	375.31009	369.53989	30.69198	390.13156	27.96586	806.44751	-286.83875	-52.80304	547.07104	-254.37350	102.66305	552.31854	-267.60147	12.02478	566.76263	627.85614	159.48669	566.95441	616.98938	
908	9.070	-240.31601	21.90013	-112.31548	335.93909	27.56911	-148.11105	-160.29129	21.93051	375.24417	369.61703	30.71568	390.15320	29.17881	806.58209	-287.58948	-51.72559	547.10590	-255.06926	103.78076	552.33911	-268.18491	12.82626	566.67743	626.81464	160.48727	566.76154	616.19629	
909	9.080	-240.28413	22.11247	-112.37488	335.99051	27.42251	-148.17621	-160.22073	21.98415	375.19815	369.67386	30.59136	390.18527	30.35222	806.65851	-288.35358	-50.85964	547.70984	-256.70844	105.19228	552.30804	-269.13852	14.04718	566.45856	626.04602	161.78386	566.78741	615.42743	
910	9.090	-240.15967	22.16797	-112.49166	335.98657	27.24084	-148.24379	-160.20706	22.07907	375.24530	369.80661	30.49439	390.22446	31.40283	806.76349	-289.24561	-49.14737	547.29681	-256.83792	106.53645	552.41724	-269.99985	14.92907	566.32715	624.96686	163.10892	566.78491	614.53174	
911	9.100	-239.98874	22.27636	-112.59893	336.21298	27.14173	-148.24733	-160.11693	22.07896	375.16779	369.93069	30.37221	390.17627	32.42113	806.79834	-290.31699	-48.05414	547.40332	-257.80957	107.48576	552.55707	-270.76666	16.30351	566.16510	624.09570	164.09181	566.62640	613.52368	
912	9.110	-239.81987	22.26658	-112.68183	336.40305	27.04263	-148.13467	-159.96124	22.03822	375.05814	370.08475	30.31003	390.20776	33.91405	806.90094	-291.18350	-47.05954	547.82159	-259.44699	109.09263	552.66913	-271.86609	17.22539	566.14484	623.11511	165.35550	566.58423	612.71216	
913	9.120	-239.76944	22.39546	-112.79927	336.55701	26.98306	-148.09413	-159.85811	22.10835	375.06186	370.19223	30.24378	390.19763	34.99350	806.94958	-292.20352	-45.40632	547.61664	-259.84006	110.07997	552.70905	-272.99170	18.48035	566.03857	622.02399	166.14131	566.49146	611.62177	
914	9.130	-239.67419	22.47297	-112.90001	336.62784	26.69066	-148.04393	-159.77034	22.19632	374.99115	370.22382	30.13498	390.27017	36.55651	807.05444	-293.03452	-44.16935	547.62128	-260.83578	111.66703	552.83820	-273.85318	19.72951	565.79358	621.02313	167.80055	566.38922	610.65253	
